<svg width="32" height="32" viewBox="0 0 32 32" fill="none" xmlns="http://www.w3.org/2000/svg">
<g clip-path="url(#clip0_3_178)">
<path d="M16.001 6.40051C11.7343 6.40051 9.06851 8.53301 8.00101 12.7998C9.60051 10.667 11.4678 9.86726 13.6005 10.4005C14.8183 10.704 15.6885 11.587 16.6523 12.5655C18.2208 14.1573 20.0363 16 24.001 16C28.2675 16 30.9335 13.8673 32.001 9.59951C30.4013 11.7335 28.5343 12.5333 26.4013 12C25.1838 11.6963 24.3145 10.8135 23.3495 9.83501C21.782 8.24326 19.967 6.40051 16.001 6.40051ZM8.00101 16C3.73451 16 1.06851 18.1328 0.00100708 22.4005C1.60051 20.2665 3.46751 19.4668 5.60051 20C6.81826 20.3038 7.68851 21.1865 8.65226 22.165C10.2208 23.7568 12.0363 25.5995 16.001 25.5995C20.2675 25.5995 22.9335 23.467 24.001 19.2003C22.4013 21.333 20.5343 22.1328 18.4013 21.5995C17.1838 21.296 16.3145 20.413 15.3495 19.4345C13.782 17.8428 11.967 16 8.00101 16Z" fill="#E1E1E6"/>
</g>
<defs>
<clipPath id="clip0_3_178">
<rect width="32" height="32" fill="white"/>
</clipPath>
</defs>
</svg>
